<?xml version="1.0" encoding="UTF-8"?><svg xmlns="http://www.w3.org/2000/svg" viewBox="0 0 287.1 109.6"><defs><style>.d{fill:#ed193a;}.e{fill:#686868;}.f{fill:#8c8c8c;}.g{fill:#ccc;}.h{fill:#a3a3a3;}</style></defs><g id="a"/><g id="b"><g id="c"><g><polygon class="e" points="287.03 57.87 106.59 109.6 106.59 85.44 287.03 33.71 287.03 57.87"/><path class="g" d="M285.73,31.39L106.59,85.44,0,51.7s.9-2.43,4.05-3.21c2.72-.68,164.32-38.81,167.78-38.81s113.9,21.71,113.9,21.71Z"/><polygon class="h" points="106.59 85.44 0 51.7 0 75.86 106.59 109.6 106.59 85.44"/><path class="h" d="M287.03,33.71L106.59,85.44l-53.29-16.87L234.46,21.39s51.06,9.56,52,10.22,.57,2.11,.57,2.11Z"/><g><polygon class="d" points="91.15 25.44 79.18 46.18 103.13 46.18 91.15 25.44"/><rect class="d" x="87.77" y="42.99" width="6.78" height="20.99"/></g><g><polygon class="d" points="146.89 14.24 134.92 34.98 158.86 34.98 146.89 14.24"/><rect class="d" x="143.5" y="31.78" width="6.78" height="20.99"/></g><g><polygon class="d" points="202.63 0 190.65 20.74 214.6 20.74 202.63 0"/><rect class="d" x="199.24" y="17.55" width="6.78" height="20.99"/></g><polygon class="f" points="106.59 85.44 53.29 68.57 53.29 92.73 106.59 109.6 106.59 85.44"/></g></g></g></svg>