<?xml version="1.0" encoding="UTF-8"?><svg xmlns="http://www.w3.org/2000/svg" viewBox="0 0 146.29 211.18"><defs><style>.d{fill:#f2f2f2;}.e{fill:#7f5334;}.f{fill:#8e6143;}.g{fill:#b27c57;}.h{fill:#ccc;}.i{fill:#ddd;}.j{fill:#a3a3a3;}.k{fill:#492e1b;}.l{fill:#603e26;}.m{fill:#28231f;}.n{stroke:#000;stroke-width:1.42px;}.n,.o{fill:none;stroke-miterlimit:10;}.o{stroke:#565656;stroke-width:2.89px;}</style></defs><g id="a"/><g id="b"><g id="c"><g><polygon class="k" points="22.65 108.88 8.01 97.58 8.01 164.76 22.65 178.67 22.65 108.88"/><polyline class="m" points="22.65 127.28 22.65 108.88 92.44 108.88 92.44 178.67 78.39 178.67"/><polyline class="h" points="77.09 189.02 92.44 145.36 92.44 108.88 32.81 108.88 8.61 149.86"/><polygon class="g" points="92.44 108.88 146.29 0 93.76 0 22.65 108.88 92.44 108.88"/><polyline class="l" points="92.44 178.67 146.29 44.4 146.29 0 92.44 108.88 92.44 178.67"/><polygon class="k" points="92.44 108.88 107.09 97.58 107.09 164.76 92.44 178.67 92.44 108.88"/><polygon class="j" points="77.09 189.02 92.44 145.36 92.44 108.88 55.58 106.51 42.39 134.65 77.09 189.02"/><g><path class="n" d="M51.45,176.2c0-4.81-3.46-8.7-7.73-8.7-5.33,0-10.04,4.69-10.04,11.26,0,7.51,4.27,13.22,12.5,13.22,10,0,15.04-7.61,15.04-17,0-11.73-8.45-21.25-18.87-21.25-13.02,0-23.58,11.89-23.58,26.56,0,18.33,12.76,29.45,28.19,29.45,18.33,0,31.41-14.83,31.41-37.75s-18.65-37.34-36.01-37.34c-28,0-40.94,24.14-40.94,39.24,0,7.33,1.68,14.1,2.34,14.81,1.48,1.57,13.49,1.76,15.77,0"/><path class="d" d="M51.45,176.2c0-4.81-3.46-8.7-7.73-8.7-5.33,0-10.04,4.69-10.04,11.26,0,7.51,4.27,13.22,12.5,13.22,10,0,15.04-7.61,15.04-17,0-11.73-8.45-21.25-18.87-21.25-13.02,0-23.58,11.89-23.58,26.56,0,18.33,12.76,29.45,28.19,29.45,18.33,0,31.41-14.83,31.41-37.75s-18.65-37.34-36.01-37.34c-28,0-40.94,24.14-40.94,39.24,0,7.33,1.68,14.1,2.34,14.81,1.48,1.57,13.49,1.76,15.77,0"/></g><path class="j" d="M42.95,134.66v74.78c1.32,.17,2.66,.29,4.03,.29,18.33,0,31.41-14.83,31.41-37.75s-18.25-37.04-35.45-37.33Z"/><path class="i" d="M38.25,134.65c6.61,0,13.41,1.96,19.3,5.71,9.56,6.09,16.71,16.89,16.71,31.63,0,16.34-6.65,28.56-17.11,34.24-4.21,2.29-9.04,3.51-14.31,3.51,17.06,0,35.55-6.24,35.55-37.75s-25.94-37.34-40.14-37.34Z"/><path class="i" d="M61.23,174.98c0-14.4-8.72-21.25-23-21.25,10.42,0,18.87,9.51,18.87,21.25,0,9.39-5.04,17-15.04,17l5.07,.63s14.11-1.37,14.11-17.62"/><polygon class="f" points="92.44 108.88 146.29 0 119.36 0 60.3 108.88 92.44 108.88"/><path class="o" d="M51.45,176.2c0-4.81-3.46-8.7-7.73-8.7-5.33,0-10.04,4.69-10.04,11.26,0,7.51,4.27,13.22,12.5,13.22,10,0,15.04-7.61,15.04-17,0-11.73-8.45-21.25-18.87-21.25-13.02,0-23.58,11.89-23.58,26.56,0,18.33,12.76,29.45,28.19,29.45,18.33,0,31.41-14.83,31.41-37.75s-18.65-37.34-36.01-37.34c-28,0-40.94,24.14-40.94,39.24,0,7.33,1.68,14.1,2.34,14.81,1.48,1.57,13.49,1.76,15.77,0"/><polygon class="e" points="97.96 83.99 28.16 83.99 22.65 108.88 92.44 108.88 97.96 83.99"/><polygon class="l" points="97.96 83.99 64.93 83.99 57.55 108.88 92.44 108.88 97.96 83.99"/></g></g></g></svg>