<?xml version="1.0" encoding="UTF-8"?><svg xmlns="http://www.w3.org/2000/svg" viewBox="0 0 125.85 205.36"><defs><style>.d{fill:#f2f2f2;}.e{fill:#ccc;}.f{fill:#ddd;}.g{fill:#191919;}.h{fill:#a3a3a3;}.i{fill:#6d6d6d;}.j{stroke-dasharray:0 0 4.98 3.98;}.j,.k,.l,.m,.n,.o{fill:none;stroke-miterlimit:10;}.j,.l,.n{stroke:#191919;}.k{stroke:#000;stroke-width:1.36px;}.m{stroke:#6d6d6d;}.m,.n{stroke-width:2.12px;}.o{stroke:#565656;stroke-width:2.79px;}</style></defs><g id="a"/><g id="b"><g id="c"><g><path class="e" d="M74.44,183.15L125.85,18.92s-2.28-11.76-19.35-17.45-26.82,5.99-26.82,5.99L5.38,150.97"/><g><path class="k" d="M49.56,171.66c0-4.63-3.33-8.38-7.44-8.38-5.14,0-9.67,4.52-9.67,10.84,0,7.23,4.11,12.73,12.04,12.73,9.63,0,14.49-7.33,14.49-16.37,0-11.3-8.14-20.46-18.17-20.46-12.54,0-22.71,11.45-22.71,25.58,0,17.66,12.29,28.36,27.15,28.36,17.65,0,30.25-14.28,30.25-36.36s-17.96-35.97-34.68-35.97c-26.97,0-39.43,23.25-39.43,37.8,0,7.06,1.61,13.58,2.25,14.26,1.43,1.51,12.99,1.7,15.19,0"/><path class="d" d="M49.56,171.66c0-4.63-3.33-8.38-7.44-8.38-5.14,0-9.67,4.52-9.67,10.84,0,7.23,4.11,12.73,12.04,12.73,9.63,0,14.49-7.33,14.49-16.37,0-11.3-8.14-20.46-18.17-20.46-12.54,0-22.71,11.45-22.71,25.58,0,17.66,12.29,28.36,27.15,28.36,17.65,0,30.25-14.28,30.25-36.36s-17.96-35.97-34.68-35.97c-26.97,0-39.43,23.25-39.43,37.8,0,7.06,1.61,13.58,2.25,14.26,1.43,1.51,12.99,1.7,15.19,0"/></g><path class="h" d="M42.8,130.71L103.29,.59c.85,.2,2.33,.58,3.21,.88,17.08,5.69,19.35,17.45,19.35,17.45l-51.42,164.24-31.64-52.44Z"/><path class="h" d="M41.91,132.59v72.03c1.27,.17,2.56,.28,3.88,.28,17.65,0,30.25-14.28,30.25-36.36s-17.58-35.68-34.14-35.95Z"/><path class="f" d="M36.84,131.64c6.37,0,12.92,1.89,18.59,5.5,9.21,5.86,16.09,16.26,16.09,30.47,0,15.73-6.4,27.51-16.48,32.98-4.06,2.2-8.71,3.38-13.78,3.38,16.43,0,34.24-6.01,34.24-36.36s-24.99-35.97-38.66-35.97Z"/><path class="f" d="M58.98,170.48c0-13.87-8.4-20.46-22.15-20.46,10.04,0,18.17,9.16,18.17,20.46,0,9.04-4.85,16.37-14.49,16.37l4.88,.6s13.59-1.32,13.59-16.98"/><path class="o" d="M49.56,171.66c0-4.63-3.33-8.38-7.44-8.38-5.14,0-9.67,4.52-9.67,10.84,0,7.23,4.11,12.73,12.04,12.73,9.63,0,14.49-7.33,14.49-16.37,0-11.3-8.14-20.46-18.17-20.46-12.54,0-22.71,11.45-22.71,25.58,0,17.66,12.29,28.36,27.15,28.36,17.65,0,30.25-14.28,30.25-36.36s-17.96-35.97-34.68-35.97c-26.97,0-39.43,23.25-39.43,37.8,0,7.06,1.61,13.58,2.25,14.26,1.43,1.51,12.99,1.7,15.19,0"/><g><line class="l" x1="47.95" y1="132.43" x2="48.97" y2="130.14"/><line class="j" x1="50.6" y1="126.51" x2="104.67" y2="5.56"/><line class="l" x1="105.48" y1="3.74" x2="106.5" y2="1.46"/></g><g><path class="i" d="M52.73,134.95l-2.92-21.37s-2.38,1.34-3.04,2.41c-1.68,2.71,3.42,19.92,3.42,19.92l2.53-.97Z"/><circle class="m" cx="52.76" cy="139.14" r="3.71"/><path class="i" d="M45.32,131.11l19.13-9.96s.28,2.72-.21,3.88c-1.25,2.94-18.24,8.72-18.24,8.72l-.67-2.63Z"/><circle class="m" cx="41.88" cy="133.51" r="3.71"/></g><g><path class="g" d="M51.35,133.36l-2.92-21.37s-2.38,1.34-3.04,2.41c-1.68,2.71,3.42,19.92,3.42,19.92l2.53-.97Z"/><circle class="n" cx="51.38" cy="137.56" r="3.71"/><path class="g" d="M43.94,129.53l19.13-9.96s.28,2.72-.21,3.88c-1.25,2.94-18.24,8.72-18.24,8.72l-.67-2.63Z"/><circle class="n" cx="40.5" cy="131.93" r="3.71"/></g></g></g></g></svg>